<!--?xml version="1.0" standalone="no"?-->
              <svg id="sw-js-blob-svg" viewBox="0 0 100 100" xmlns="http://www.w3.org/2000/svg" version="1.1">
                    <defs> 
                        <linearGradient id="sw-gradient" x1="0" x2="1" y1="1" y2="0">
                            <stop id="stop1" stop-color="rgba(248, 117, 55, 1)" offset="0%"></stop>
                            <stop id="stop2" stop-color="rgba(251, 168, 31, 1)" offset="100%"></stop>
                        </linearGradient>
                    </defs>
                <path fill="url(#sw-gradient)" d="M19.2,-33C24.4,-30.2,27.8,-24.1,32.5,-18.1C37.2,-12,43.1,-6,42.8,-0.1C42.6,5.8,36.2,11.5,30.9,16.4C25.6,21.3,21.3,25.4,16.3,27.2C11.4,28.9,5.7,28.3,-0.9,29.8C-7.4,31.3,-14.9,35,-19.2,32.8C-23.5,30.7,-24.6,22.8,-26.8,16.4C-29.1,9.9,-32.4,5,-33.8,-0.8C-35.2,-6.6,-34.7,-13.2,-32.2,-19.2C-29.8,-25.2,-25.3,-30.7,-19.6,-33.2C-13.9,-35.8,-7,-35.4,0,-35.5C7,-35.5,14,-35.9,19.2,-33Z" width="100%" height="100%" transform="translate(50 50)" stroke-width="0" style="transition: all 0.3s ease 0s;"></path>
              </svg>