<svg id="visual" viewBox="0 0 960 540" width="960" height="540" xmlns="http://www.w3.org/2000/svg" xmlns:xlink="http://www.w3.org/1999/xlink" version="1.1"><path d="M0 331L22.8 333.8C45.7 336.7 91.3 342.3 137 349.8C182.7 357.3 228.3 366.7 274 372.5C319.7 378.3 365.3 380.7 411.2 397.7C457 414.7 503 446.3 548.8 449.5C594.7 452.7 640.3 427.3 686 399.5C731.7 371.7 777.3 341.3 823 329.8C868.7 318.3 914.3 325.7 937.2 329.3L960 333L960 541L937.2 541C914.3 541 868.7 541 823 541C777.3 541 731.7 541 686 541C640.3 541 594.7 541 548.8 541C503 541 457 541 411.2 541C365.3 541 319.7 541 274 541C228.3 541 182.7 541 137 541C91.3 541 45.7 541 22.8 541L0 541Z" fill="#f4e2d8"></path><path d="M0 481L22.8 460.8C45.7 440.7 91.3 400.3 137 389.2C182.7 378 228.3 396 274 401.8C319.7 407.7 365.3 401.3 411.2 405.3C457 409.3 503 423.7 548.8 439.3C594.7 455 640.3 472 686 470.3C731.7 468.7 777.3 448.3 823 425C868.7 401.7 914.3 375.3 937.2 362.2L960 349L960 541L937.2 541C914.3 541 868.7 541 823 541C777.3 541 731.7 541 686 541C640.3 541 594.7 541 548.8 541C503 541 457 541 411.2 541C365.3 541 319.7 541 274 541C228.3 541 182.7 541 137 541C91.3 541 45.7 541 22.8 541L0 541Z" fill="#e8bfb2"></path><path d="M0 386L22.8 398.5C45.7 411 91.3 436 137 449.5C182.7 463 228.3 465 274 470.8C319.7 476.7 365.3 486.3 411.2 490.2C457 494 503 492 548.8 476.2C594.7 460.3 640.3 430.7 686 426.7C731.7 422.7 777.3 444.3 823 449.2C868.7 454 914.3 442 937.2 436L960 430L960 541L937.2 541C914.3 541 868.7 541 823 541C777.3 541 731.7 541 686 541C640.3 541 594.7 541 548.8 541C503 541 457 541 411.2 541C365.3 541 319.7 541 274 541C228.3 541 182.7 541 137 541C91.3 541 45.7 541 22.8 541L0 541Z" fill="#db9c94"></path><path d="M0 438L22.8 445.2C45.7 452.3 91.3 466.7 137 473.5C182.7 480.3 228.3 479.7 274 485C319.7 490.3 365.3 501.7 411.2 496.8C457 492 503 471 548.8 457.5C594.7 444 640.3 438 686 446.5C731.7 455 777.3 478 823 478C868.7 478 914.3 455 937.2 443.5L960 432L960 541L937.2 541C914.3 541 868.7 541 823 541C777.3 541 731.7 541 686 541C640.3 541 594.7 541 548.8 541C503 541 457 541 411.2 541C365.3 541 319.7 541 274 541C228.3 541 182.7 541 137 541C91.3 541 45.7 541 22.8 541L0 541Z" fill="#cc787e"></path><path d="M0 506L22.8 507C45.7 508 91.3 510 137 512.7C182.7 515.3 228.3 518.7 274 513.7C319.7 508.7 365.3 495.3 411.2 495.2C457 495 503 508 548.8 510.7C594.7 513.3 640.3 505.7 686 504.3C731.7 503 777.3 508 823 507.3C868.7 506.7 914.3 500.3 937.2 497.2L960 494L960 541L937.2 541C914.3 541 868.7 541 823 541C777.3 541 731.7 541 686 541C640.3 541 594.7 541 548.8 541C503 541 457 541 411.2 541C365.3 541 319.7 541 274 541C228.3 541 182.7 541 137 541C91.3 541 45.7 541 22.8 541L0 541Z" fill="#ba5370"></path></svg>